<?xml version="1.0" standalone="no"?>
<!DOCTYPE svg PUBLIC "-//W3C//DTD SVG 20010904//EN"
 "http://www.w3.org/TR/2001/REC-SVG-20010904/DTD/svg10.dtd">
<svg version="1.0" xmlns="http://www.w3.org/2000/svg"
 width="689.000000pt" height="689.000000pt" viewBox="0 0 689.000000 689.000000"
 preserveAspectRatio="xMidYMid meet">
<metadata>
Created by potrace 1.14, written by Peter Selinger 2001-2017
</metadata>
<g transform="translate(0.000000,689.000000) scale(0.100000,-0.100000)"
fill="#000000" stroke="none">
<path d="M3178 4431 c-181 -59 -289 -201 -305 -401 -8 -102 -35 -171 -86 -220
-23 -22 -48 -40 -54 -40 -7 0 -13 -5 -13 -11 0 -6 6 -9 14 -6 8 3 17 3 21 -1
4 -4 10 -7 13 -8 4 0 16 -5 26 -9 13 -6 21 -5 24 3 2 7 10 19 19 27 8 8 12 19
8 24 -3 5 0 13 6 16 5 4 8 13 5 21 -3 7 -1 16 5 20 6 3 8 12 5 20 -9 24 9 15
32 -15 33 -45 179 -150 267 -193 79 -38 79 -39 40 -38 -83 2 -97 -8 -41 -28
43 -16 122 -85 143 -125 9 -18 16 -52 16 -77 0 -25 3 -49 7 -55 4 -5 9 -24 12
-42 4 -30 2 -32 -38 -42 -61 -16 -200 -13 -269 4 -33 8 -94 32 -136 53 l-76
38 1 -25 c1 -21 15 -32 81 -68 44 -23 107 -49 140 -58 67 -17 220 -20 261 -5
20 8 29 8 34 -1 8 -12 -19 -92 -37 -110 -6 -6 -9 -18 -6 -25 5 -12 -8 -19 -29
-15 -5 0 -7 -5 -5 -12 1 -6 -8 -12 -20 -12 -12 0 -28 -7 -35 -16 -25 -32 -102
-52 -170 -45 -91 10 -195 44 -257 85 -42 27 -102 19 -108 -14 0 -6 -4 -25 -6
-43 -3 -19 -12 -41 -19 -50 -8 -10 -15 -35 -16 -57 l-3 -40 24 44 c32 62 47
69 91 42 20 -13 33 -27 30 -33 -4 -7 -2 -8 5 -4 13 8 73 -43 65 -56 -3 -5 -2
-8 3 -7 19 3 32 -3 59 -28 16 -15 28 -33 26 -41 -2 -8 1 -12 6 -8 5 3 9 -1 9
-9 0 -8 -4 -12 -8 -9 -4 2 -11 0 -14 -6 -4 -6 -3 -10 2 -9 24 4 43 -3 43 -16
0 -8 6 -15 13 -15 8 0 7 -4 -3 -10 -13 -9 -13 -10 0 -10 13 0 13 -1 0 -10 -11
-7 -11 -10 -2 -10 7 0 10 -5 6 -11 -3 -6 -2 -14 3 -18 6 -3 13 -32 17 -64 5
-49 25 -112 26 -83 0 5 6 3 14 -3 8 -7 16 -8 19 -4 8 13 -4 63 -15 63 -6 0 -8
6 -5 14 3 8 0 16 -6 19 -9 3 -12 -8 -10 -37 l2 -41 -9 40 c-15 66 -11 155 10
239 11 44 18 81 16 83 -2 3 -33 10 -69 18 -35 7 -92 27 -126 45 -61 30 -141
94 -141 111 0 15 30 10 36 -6 4 -8 10 -13 14 -10 5 3 11 -4 15 -15 4 -11 10
-18 14 -15 4 2 17 -5 29 -15 12 -11 28 -20 37 -20 8 0 15 -5 15 -11 0 -5 5 -7
10 -4 6 3 10 1 10 -5 0 -6 4 -9 8 -6 5 3 18 -3 29 -14 12 -10 23 -16 27 -13 3
3 12 1 19 -5 8 -7 16 -9 19 -7 3 3 33 7 67 10 33 2 67 7 74 12 6 4 14 8 17 9
19 3 40 18 40 26 0 6 12 21 28 34 26 23 37 28 55 25 4 0 7 3 7 8 0 8 54 41 66
41 2 0 -6 -16 -17 -35 -12 -19 -27 -35 -34 -35 -7 0 -37 -20 -66 -44 -30 -24
-63 -46 -75 -50 -13 -4 -26 -23 -37 -54 -17 -48 -31 -132 -22 -132 3 0 15 23
27 50 12 28 28 51 35 51 7 1 17 2 23 3 5 0 16 11 24 22 11 16 29 23 66 26 54
5 85 23 63 36 -12 7 -3 35 11 33 3 -1 7 -1 9 0 1 0 13 3 27 5 14 3 32 11 40
20 13 13 13 15 -6 20 -28 7 -21 39 13 61 14 9 28 26 33 37 6 18 8 16 12 -11 3
-21 1 -30 -6 -26 -10 6 11 -22 42 -56 17 -18 120 -84 172 -111 45 -23 51 -32
18 -26 -13 2 -29 -2 -37 -8 -12 -9 -13 -8 -7 4 4 8 0 6 -9 -5 -16 -19 -16 -19
-13 -1 2 10 -2 21 -8 23 -7 2 -10 -10 -8 -37 1 -22 -1 -38 -5 -35 -5 2 -6 16
-3 30 3 20 1 25 -14 22 -28 -4 -45 -17 -38 -29 4 -6 1 -9 -6 -6 -8 2 -16 10
-18 16 -2 7 0 11 5 10 4 -2 9 1 10 6 1 5 7 12 14 17 7 4 14 14 15 23 2 13 -2
14 -17 6 -10 -6 -19 -14 -19 -18 0 -4 -15 -7 -32 -7 -41 2 -66 -10 -96 -46
-15 -17 -30 -25 -40 -22 -11 5 -13 3 -7 -7 6 -10 2 -11 -17 -7 -19 5 -28 2
-32 -10 -6 -15 -8 -15 -16 -3 -6 9 -10 10 -10 3 0 -6 -16 -17 -35 -23 -19 -6
-35 -16 -35 -21 0 -6 4 -8 9 -5 5 4 12 -7 16 -23 7 -31 30 -48 39 -28 3 9 5 8
5 -1 1 -7 6 -10 12 -6 8 5 8 1 0 -13 -6 -11 -7 -24 -3 -28 4 -4 -2 -3 -13 2
-21 11 -48 6 -41 -6 3 -4 -1 -8 -9 -8 -11 0 -12 4 -4 14 6 7 9 14 5 14 -13 3
-26 7 -31 9 -3 1 -9 3 -15 4 -5 0 -10 4 -10 9 0 4 0 10 0 13 0 4 7 1 16 -6 12
-11 18 -10 30 3 8 9 9 12 2 7 -23 -19 -31 -10 -12 12 14 17 15 20 2 9 -9 -7
-21 -10 -27 -7 -5 3 -12 -1 -15 -10 -3 -9 -11 -12 -18 -8 -8 5 -9 2 -5 -9 3
-9 3 -27 -2 -39 -8 -24 5 -78 21 -89 6 -3 9 -9 9 -13 -3 -20 0 -26 9 -21 6 3
10 0 10 -7 0 -9 3 -9 10 2 8 13 10 12 10 -3 0 -11 4 -15 12 -11 8 5 9 0 6 -14
-4 -12 -3 -20 2 -17 4 3 26 -13 49 -35 41 -40 61 -50 61 -29 0 5 -4 7 -10 4
-5 -3 -10 -1 -10 4 0 14 17 14 25 1 8 -13 -14 -42 -26 -34 -5 3 -9 0 -9 -5 0
-6 -8 -11 -17 -11 -15 0 -16 2 -3 10 11 7 6 8 -17 4 -43 -8 -97 11 -113 41 -7
13 -17 22 -23 18 -5 -3 -3 -9 4 -14 11 -7 11 -9 -1 -9 -8 0 -21 4 -27 8 -17
11 -28 68 -14 76 7 5 5 22 -8 55 -10 26 -16 57 -15 69 2 11 -1 24 -6 27 -13 8
-13 -45 0 -65 5 -9 5 -17 0 -20 -5 -3 -3 -18 5 -34 11 -20 12 -32 5 -41 -6 -7
-8 -20 -4 -29 3 -9 4 -16 2 -16 -10 0 -74 34 -108 57 -42 28 -46 28 -52 5 -3
-12 2 -24 15 -31 19 -12 19 -13 -5 -25 -16 -9 -40 -11 -74 -6 -53 8 -143 37
-159 51 -5 5 -15 9 -21 9 -7 0 -25 5 -41 12 -15 6 -31 12 -35 12 -4 1 -13 7
-19 14 -7 6 -20 12 -29 12 -8 0 -37 11 -65 25 -54 26 -75 31 -75 15 0 -5 3
-10 8 -10 4 0 25 -16 47 -35 40 -35 50 -41 156 -88 31 -14 99 -55 150 -93 79
-57 115 -75 229 -116 134 -48 136 -48 262 -48 135 0 218 13 331 53 62 22 72
30 119 92 28 37 97 116 153 174 99 103 178 209 225 301 13 25 34 60 47 77 22
29 24 36 14 64 -14 42 -14 112 1 161 16 54 72 113 138 146 59 29 80 60 131
192 23 60 23 148 -1 241 -10 39 -16 48 -40 52 -31 7 -143 96 -160 127 -6 11
-15 18 -20 15 -5 -3 -11 -1 -15 4 -3 6 -12 8 -20 5 -8 -4 -18 1 -21 10 -3 9
-10 14 -14 11 -5 -3 -15 1 -23 9 -8 8 -17 12 -21 9 -3 -4 -6 -1 -6 5 0 7 -3
11 -7 10 -17 -4 -53 14 -47 24 4 7 2 8 -4 4 -6 -4 -34 5 -62 20 -47 25 -50 28
-52 68 -2 62 -3 68 -17 109 -7 21 -16 36 -19 32 -11 -11 -72 59 -78 92 -7 37
-23 53 -56 58 -33 4 -54 14 -110 51 -76 52 -165 76 -293 80 -89 3 -121 0 -167
-15z m216 -16 c-12 -9 -43 -14 -89 -15 -122 0 -245 -47 -313 -119 -13 -14 -19
-17 -11 -6 69 104 178 154 338 154 86 1 93 0 75 -14z m-112 -149 c-118 -130
-167 -312 -128 -478 7 -32 10 -58 6 -58 -18 0 -77 49 -107 88 -59 77 -70 176
-33 294 34 110 119 187 231 206 80 15 85 6 31 -52z m314 -531 c-9 -14 -21 -25
-27 -25 -5 0 0 13 12 30 27 35 39 32 15 -5z m203 -241 c44 -17 81 -60 111
-126 29 -63 27 -68 -22 -52 -70 21 -151 32 -221 31 -59 -2 -64 0 -56 16 6 10
15 14 22 10 7 -4 7 0 -2 10 -12 15 -9 21 11 18 8 -1 4 42 -6 58 -4 6 -16 9
-27 6 -10 -4 -19 -2 -19 4 0 5 -19 11 -42 13 l-43 3 45 12 c70 17 203 16 249
-3z m156 -308 c13 -63 16 -112 13 -197 -5 -99 -10 -127 -41 -213 -53 -145
-160 -315 -191 -303 -7 3 -20 -1 -30 -9 -27 -19 -38 -7 -20 21 9 14 20 22 25
19 5 -2 18 15 29 39 12 24 29 53 38 63 26 29 52 72 52 86 0 7 11 30 25 50 14
20 25 46 25 57 0 11 5 23 10 26 6 4 8 10 5 15 -3 4 2 27 10 51 9 23 12 52 8
63 -4 12 -6 35 -5 51 6 90 -1 167 -16 207 -10 24 -9 26 8 23 11 -2 19 -1 19 3
-3 17 2 32 10 32 5 0 16 -38 26 -84z m-230 -43 c55 -17 141 -58 149 -71 16
-26 -73 -250 -94 -237 -6 3 -10 13 -10 21 0 10 -5 12 -12 8 -10 -6 -10 -5 -1
7 18 22 19 64 3 85 -8 10 -10 15 -4 11 7 -4 11 8 12 33 1 22 -3 40 -9 40 -5 0
-7 5 -4 10 3 6 1 10 -5 10 -6 0 -9 4 -6 8 3 5 -8 16 -25 26 -16 9 -27 21 -24
25 2 5 -8 6 -23 5 -15 -2 -21 -1 -13 2 11 5 8 11 -10 25 l-24 18 25 -5 c14 -3
48 -13 75 -21z m-254 -52 c6 9 9 10 9 2 0 -18 -34 -33 -50 -23 -12 7 -11 12 5
31 l20 21 3 -22 c3 -18 6 -20 13 -9z m-531 -154 c30 -8 78 -18 105 -22 46 -7
48 -8 25 -17 -48 -19 -102 -10 -182 29 -83 41 -118 75 -45 44 23 -10 67 -25
97 -34z m658 -167 c-1 -16 -7 -31 -15 -34 -7 -3 -13 -11 -13 -18 0 -10 2 -10
9 1 6 9 11 10 15 2 4 -6 2 -11 -4 -11 -6 0 -8 -5 -4 -11 4 -8 1 -8 -13 -1 -22
12 -24 59 -3 54 7 -2 10 3 7 11 -3 8 0 20 6 26 15 15 16 15 15 -19z m-55 -53
c-3 -5 5 -18 18 -29 13 -10 20 -18 14 -17 -5 1 -12 0 -15 -1 -19 -7 -39 -7
-34 1 3 5 -2 9 -11 9 -9 0 -14 -4 -11 -8 3 -5 -2 -9 -10 -9 -8 0 -13 6 -10 13
3 8 1 16 -5 19 -11 7 -2 25 12 25 6 0 8 -4 4 -9 -3 -5 -1 -13 5 -16 6 -4 10
-3 9 2 -1 4 2 18 6 31 6 18 10 20 21 11 8 -6 11 -16 7 -22z m-70 -23 c9 -9
-12 -46 -23 -39 -5 3 -14 -4 -20 -15 -13 -24 -31 -17 -27 10 4 26 17 38 17 15
0 -13 3 -15 13 -6 8 6 17 7 22 3 4 -4 4 3 1 16 -7 21 3 30 17 16z m-91 -66
c-6 -6 -7 0 -4 19 5 21 7 23 10 9 2 -10 0 -22 -6 -28z m-31 5 c8 -9 9 -14 2
-10 -6 4 -13 1 -16 -5 -3 -7 -4 -3 -4 10 1 26 1 26 18 5z m-391 -255 c0 -4 -4
-8 -9 -8 -6 0 -12 4 -15 8 -3 5 1 9 9 9 8 0 15 -4 15 -9z"/>
<path d="M3531 2693 c7 -12 15 -20 18 -17 3 2 -3 12 -13 22 -17 16 -18 16 -5
-5z"/>
<path d="M2975 4350 c-10 -11 -21 -17 -25 -15 -10 6 -35 -23 -27 -31 3 -3 23
10 44 30 21 19 35 36 32 36 -3 0 -14 -9 -24 -20z"/>
<path d="M2871 4174 c0 -11 3 -14 6 -6 3 7 2 16 -1 19 -3 4 -6 -2 -5 -13z"/>
<path d="M2500 3709 c-19 -21 -42 -41 -50 -44 -10 -3 -20 -27 -26 -68 -6 -34
-18 -91 -27 -127 -9 -36 -22 -104 -30 -151 -11 -71 -11 -86 0 -86 8 0 11 7 8
18 -6 18 13 69 26 69 18 0 18 -68 -2 -105 -3 -5 -2 -26 1 -45 l6 -35 13 38
c11 32 31 51 31 29 0 -19 66 -73 129 -105 l68 -35 44 39 44 39 6 -37 c6 -34 6
-32 8 18 1 62 -5 75 -26 54 -22 -22 -36 -18 -26 8 4 12 8 40 8 62 l0 40 -97
50 c-94 48 -97 49 -117 31 -11 -10 -22 -35 -26 -56 -4 -22 -13 -44 -21 -51
-12 -10 -13 -1 -9 60 2 44 1 69 -5 66 -13 -8 -11 96 2 112 5 6 8 20 7 30 -2
19 2 32 29 96 15 37 82 107 103 107 5 0 7 5 4 10 -12 19 -40 8 -75 -31z"/>
<path d="M2826 3722 c-3 -5 1 -9 9 -9 8 0 12 4 9 9 -3 4 -7 8 -9 8 -2 0 -6 -4
-9 -8z"/>
<path d="M2864 3698 c4 -30 17 -40 34 -26 10 7 14 8 10 4 -11 -13 33 -87 46
-78 6 3 17 7 24 8 46 7 45 15 -9 52 -61 41 -79 47 -79 26 0 -9 -5 -12 -10 -9
-6 4 -8 10 -5 15 3 5 1 11 -4 14 -5 4 -8 0 -7 -6z"/>
<path d="M2843 3615 c-17 -19 -34 -31 -38 -27 -5 4 -5 2 -2 -4 4 -7 1 -27 -7
-44 -7 -18 -15 -27 -17 -21 -3 7 -17 -6 -32 -29 -15 -23 -25 -46 -21 -51 3 -5
0 -9 -7 -9 -6 0 -9 -8 -6 -19 4 -16 -1 -18 -37 -14 -22 3 -66 13 -96 23 -55
19 -84 21 -95 7 -3 -4 -2 -5 2 -2 3 3 13 -1 21 -7 27 -23 86 -38 94 -25 5 8 8
7 8 -5 0 -11 6 -16 20 -13 11 2 20 -2 20 -8 0 -7 4 -6 10 3 6 10 10 11 10 3 0
-8 14 -13 38 -13 27 0 33 -3 22 -10 -14 -9 -7 -15 14 -11 5 1 4 -4 -3 -13 -8
-10 -9 -16 -1 -21 6 -3 8 -11 5 -16 -4 -5 -4 -9 -1 -9 7 0 38 70 56 125 7 22
32 69 55 105 45 69 62 105 44 95 -6 -4 -7 3 -3 19 9 38 -17 34 -53 -9z"/>
<path d="M2736 3255 c4 -8 8 -15 10 -15 2 0 4 7 4 15 0 8 -4 15 -10 15 -5 0
-7 -7 -4 -15z"/>
<path d="M2735 3221 c-3 -5 -2 -12 3 -15 5 -3 9 1 9 9 0 17 -3 19 -12 6z"/>
<path d="M2357 3066 c-12 -30 -8 -44 16 -50 25 -7 65 -40 90 -76 27 -38 19
-119 -14 -141 -5 -3 14 -10 41 -15 48 -10 50 -10 45 10 -3 12 -2 15 1 9 10
-22 20 -14 22 19 2 29 15 47 34 48 5 0 7 -3 6 -7 -3 -8 76 -120 96 -138 19
-17 42 -58 50 -87 3 -16 10 -28 15 -28 4 0 7 -12 5 -27 -1 -15 3 -34 9 -42 9
-12 9 -13 0 -7 -7 4 -13 3 -13 -3 0 -11 -60 -3 -77 11 -7 5 -32 11 -55 13 -58
5 -102 16 -109 28 -4 5 -21 10 -38 11 -17 0 -31 4 -31 8 0 3 -10 8 -22 10 -21
3 -21 3 6 35 44 52 84 70 154 69 34 -1 62 2 62 7 0 6 -47 12 -71 9 -4 -1 -28
-3 -54 -5 -26 -3 -50 -9 -54 -14 -13 -21 -117 -69 -143 -66 -16 1 -28 -1 -28
-5 0 -6 48 -48 93 -81 18 -13 18 -12 8 7 -15 28 -14 37 2 23 8 -6 17 -8 20 -5
3 4 22 -3 42 -15 20 -11 57 -26 82 -32 24 -7 53 -20 62 -30 9 -10 26 -20 38
-22 12 -1 28 -9 37 -17 9 -7 29 -14 44 -15 15 -1 26 -6 25 -12 -1 -5 5 -10 13
-10 7 0 14 5 14 11 0 6 6 4 13 -4 13 -17 46 -23 48 -9 1 5 2 16 2 24 0 28 -3
35 -14 35 -5 0 -8 -4 -4 -9 3 -5 2 -12 -3 -15 -4 -2 -9 9 -10 26 -1 17 -9 45
-16 62 -20 44 -26 76 -14 73 6 -1 13 4 16 12 3 8 0 11 -6 7 -11 -7 -66 60 -82
99 -5 11 -26 38 -48 61 -21 22 -47 53 -57 68 -17 25 -20 27 -31 11 -7 -9 -15
-12 -18 -6 -3 5 0 11 6 14 10 3 10 8 -2 21 -22 28 -54 37 -62 17 -5 -13 -7
-12 -7 5 -1 11 -17 35 -36 53 -20 18 -32 37 -29 43 4 7 3 8 -4 4 -7 -4 -12 -1
-12 6 0 11 -2 11 -9 0 -6 -11 -10 -11 -18 0 -6 7 -12 20 -15 27 -3 12 -6 11
-11 -3z m358 -596 c3 -6 -1 -7 -9 -4 -18 7 -21 14 -7 14 6 0 13 -4 16 -10z"/>
<path d="M3067 2776 c-20 -74 -20 -76 -9 -76 4 0 14 26 21 58 7 31 15 63 18
70 2 6 1 12 -4 12 -5 0 -17 -29 -26 -64z"/>
<path d="M2390 2750 c-19 -17 -26 -26 -15 -21 44 21 103 40 109 34 3 -4 6 -1
6 5 0 25 -65 13 -100 -18z"/>
<path d="M2726 2772 c-3 -5 6 -21 20 -33 65 -59 76 -73 72 -101 -3 -16 -1 -28
4 -28 4 0 8 17 8 38 0 32 -7 45 -49 86 -27 26 -51 43 -55 38z"/>
<path d="M2813 2720 c31 -36 57 -72 57 -80 0 -12 -2 -12 -9 -2 -5 9 -8 5 -8
-15 0 -15 -3 -37 -7 -48 -4 -11 6 4 21 33 l27 52 -42 43 c-23 24 -39 47 -35
52 5 4 2 5 -5 1 -8 -5 -22 0 -35 11 -12 10 4 -11 36 -47z"/>
<path d="M2323 2707 c-4 -8 -17 -19 -28 -25 -11 -6 -15 -12 -8 -12 7 0 25 11
40 25 15 13 23 25 16 25 -7 0 -16 -6 -20 -13z"/>
<path d="M3186 2692 c-3 -5 1 -9 9 -9 8 0 12 4 9 9 -3 4 -7 8 -9 8 -2 0 -6 -4
-9 -8z"/>
<path d="M3235 2620 c-7 -12 -8 -11 28 -16 15 -1 27 2 27 8 0 6 -3 8 -6 5 -4
-3 -15 -2 -25 3 -12 7 -20 7 -24 0z"/>
<path d="M3070 2449 c0 -5 5 -7 10 -4 6 3 10 8 10 11 0 2 -4 4 -10 4 -5 0 -10
-5 -10 -11z"/>
</g>
</svg>
